<svg width="51" height="50" viewBox="0 0 51 50" fill="none" xmlns="http://www.w3.org/2000/svg">
<path d="M12.4033 17.4069C13.2603 16.4308 14.1412 15.4546 15.0696 14.5261L15.76 13.8833L15.4267 13.5976C14.2625 12.5982 13.4329 11.2657 13.0497 9.77985C12.6666 8.29405 12.7484 6.72647 13.2841 5.28863C14.0605 3.66724 15.2896 2.30533 16.8232 1.36741C18.3567 0.429496 20.129 -0.0442991 21.9259 0.00325918V4.76485C21.0789 4.75306 20.244 4.96748 19.5075 5.38599C18.771 5.80449 18.1594 6.41194 17.736 7.14565C17.3312 8.09797 17.736 9.14552 18.8549 10.2645C19.0215 10.455 19.212 10.574 19.3786 10.7407C26.5206 5.00293 34.3529 1.76505 38.1858 5.59813C38.5873 6.00858 38.9172 6.48337 39.1619 7.0028V7.24088L39.5904 8.50271L50.0891 39.6912C50.4862 40.8665 50.5976 42.1195 50.4141 43.3464C50.2305 44.5733 49.7573 45.7389 49.0336 46.7465C48.31 47.7541 47.3566 48.5748 46.2526 49.1406C45.1487 49.7064 43.9258 50.001 42.6852 50C41.8753 49.9921 41.0717 49.8555 40.3046 49.5953L7.64197 38.7626C7.24057 38.6132 6.88691 38.3582 6.61829 38.0246L6.11835 37.596C2.71401 34.1677 4.90422 27.5729 9.47508 21.1685C6.76101 19.5845 3.63591 18.8467 0.5 19.0496V14.288C4.69627 14.0571 8.85932 15.1479 12.4033 17.4069ZM41.6854 45.0718C42.2258 45.2506 42.8052 45.2758 43.3591 45.1444C43.9129 45.013 44.4194 44.7303 44.8219 44.3278C45.2244 43.9252 45.5071 43.4188 45.6385 42.8649C45.7698 42.311 45.7447 41.7315 45.5658 41.191L42.3281 31.4298C40.0175 35.8364 36.4671 39.4698 32.1151 41.8815L41.6854 45.0718ZM25.0208 39.5245C28.6186 38.5716 31.9007 36.6847 34.5345 34.0549C37.1683 31.4251 39.0604 28.1458 40.0189 24.5493L37.6382 17.4069L37.4954 17.6212C37.2335 18.1449 36.9002 18.6925 36.567 19.2401C36.2337 19.7877 36.186 19.9305 35.948 20.2877C35.7099 20.6448 35.1624 21.4304 34.7338 22.0256C34.3053 22.6208 34.2815 22.6923 34.0196 23.0256C33.7578 23.3589 32.996 24.335 32.4484 24.9778L31.758 25.8111C30.9486 26.7396 30.0916 27.6443 29.1869 28.5728C28.2823 29.5013 27.5681 30.0965 26.8063 30.9536L26.0206 31.6202L24.1637 33.1201L23.2829 33.7868C22.6163 34.2629 21.9735 34.7391 21.3069 35.1676L20.5689 35.6438C19.7119 36.1676 18.8549 36.6675 18.0216 37.0961H17.9026L25.0208 39.5245ZM9.52269 34.2153H9.66553C11.3082 35.12 18.1407 32.8583 25.8302 25.1445C26.6396 24.335 27.4014 23.5493 28.0918 22.7637L28.7822 21.9304L30.044 20.4067L30.7343 19.4544C31.0438 19.002 31.3771 18.5735 31.6628 18.1449L32.2818 17.145L32.9722 16.026C33.1626 15.6927 33.3055 15.3832 33.4721 15.0737C33.6387 14.7642 33.8292 14.4547 33.972 14.1214C34.0997 13.8424 34.211 13.5562 34.3053 13.2643C34.4244 12.9548 34.5672 12.6453 34.6624 12.3596C34.7577 12.0739 34.7815 11.9072 34.8529 11.6215C34.9243 11.3359 34.9719 11.0978 35.0195 10.8597C35.0314 10.6535 35.0314 10.4469 35.0195 10.2407C35.0425 10.0509 35.0425 9.85907 35.0195 9.6693L34.7577 8.93125C33.9006 8.07416 29.4488 8.93125 23.4971 13.4548C24.506 13.9101 25.5845 14.1918 26.6872 14.288V19.0496C24.1584 18.9042 21.7049 18.1354 19.5453 16.8117L18.4025 17.9069C17.4027 18.9068 16.4742 19.9305 15.5934 20.9543C16.9561 23.4187 17.4587 26.267 17.0218 29.049L12.2604 28.1205C12.4007 27.2372 12.4007 26.3373 12.2604 25.454C11.5339 26.5558 10.8893 27.7097 10.3321 28.9061C8.99894 32.0488 9.09417 33.8106 9.52269 34.2153Z" fill="#23BBBB"/>
</svg>
